<svg id="Icone" xmlns="http://www.w3.org/2000/svg" viewBox="0 0 1063.75 669.12"><defs><style>.cls-1{font-size:43px;fill:#828282;font-family:FiraCode-Light, Fira Code;font-weight:300;letter-spacing:0.13em;}.cls-2{fill:#29abe2;}.cls-3,.cls-4{fill:none;}.cls-3{stroke:#011780;}.cls-3,.cls-4,.cls-5{stroke-miterlimit:10;stroke-width:20px;}.cls-4{stroke:#0bb6ff;opacity:0.6;}.cls-5{fill:#fff;stroke:#29abe2;}</style></defs><title>Logo</title><g id="Name"><path d="M476.39,532a49.29,49.29,0,0,1-7.3,26.12q-7.3,12-21.49,19.94a92.19,92.19,0,0,1-27.4,9.79,169.26,169.26,0,0,1-32.73,3c-2.06,0-4.37,0-7-.08s-4.33-.12-5.27-.22l-1.4-8.83H388.6a159.1,159.1,0,0,0,28.79-2.35Q430,577,438.18,572.9q15.6-7.8,21.43-18.62T465.44,533q0-13.54-6.68-21.71t-20.58-12.58a67.4,67.4,0,0,0-12.5-2.43,182.13,182.13,0,0,0-19.24-.81c-1.6,0-3.3.05-5.13.15s-3.35.19-4.56.29l-1.27-7.8q32-4,46.15-14.57t14.11-30.76q0-11.18-5.41-19.28t-15.66-13.1A57.26,57.26,0,0,0,418,405.35a120.56,120.56,0,0,0-19-1.55q-4.07,0-8.43.08c-2.9.05-4.73.07-5.47.07l2.24-9.27h9.27a158.65,158.65,0,0,1,25,1.91,71.47,71.47,0,0,1,21.63,6.92,43.83,43.83,0,0,1,17,14.93q6.45,9.65,6.46,24.07A44.33,44.33,0,0,1,457.15,470a48.42,48.42,0,0,1-24.87,17.22v.59q19.11,2.51,31.61,13.76T476.39,532Z" transform="translate(-137 -48.74)"/><path d="M661.68,521.69q-15.73-.3-27.11-.3H613.92q-.28,28.7-.07,47.24c.14,12.37.25,20.11.35,23.26H603.38V567.31q0-19.87.28-45.92l-87.93.3-4.64-7.81q33.44-41,62.93-78.63t32.31-41.31l7.87,5.15q-.15,25.43-.21,68.35t-.07,45.27c4.3,0,9.88,0,16.71.07s17.19,0,31-.22ZM603.8,411l-.28.05-80.3,101.35.09.3,11.87.07q10.47.08,24,.07H578.8q14.61,0,24.86-.14,0-20.73.07-48.64T603.8,411Z" transform="translate(-137 -48.74)"/><path d="M768.87,505.5a35.33,35.33,0,0,1-4.29,17.44A41.5,41.5,0,0,1,752,536.55a51.36,51.36,0,0,1-18,7.51,108.57,108.57,0,0,1-24.3,2.5c-3.19,0-6.93-.13-11.24-.37s-7.4-.47-9.27-.66l-.28-9.72q2.94.3,8.85.67t13.2.36a111,111,0,0,0,18-1.54q9.42-1.54,13.49-3.9a36.85,36.85,0,0,0,11.73-9.86q4.14-5.6,4.14-14.57a23.53,23.53,0,0,0-3.79-12.88,36.35,36.35,0,0,0-11-10.67,128.65,128.65,0,0,0-15.45-8.31,166.82,166.82,0,0,1-16.72-8.91,42.35,42.35,0,0,1-13.69-13.32,33,33,0,0,1-5.13-18.17,33.32,33.32,0,0,1,4.64-17.66q4.63-7.65,14-13.25A49,49,0,0,1,726,398.43a97.71,97.71,0,0,1,20.86-2q7.31,0,12.22.22c3.28.15,5.48.28,6.6.37l.57,9.42q-3-.15-8.5-.29T745.41,406a89.46,89.46,0,0,0-16.79,1.4,38.87,38.87,0,0,0-12.85,4.78,27.55,27.55,0,0,0-9.48,9.42,23.58,23.58,0,0,0-3.17,12.07,24.4,24.4,0,0,0,3.66,13q3.65,6,12.36,11.26,5.61,3.39,14.26,7.51t15.52,8.24q10.67,6.48,15.31,14.35A33.74,33.74,0,0,1,768.87,505.5Z" transform="translate(-137 -48.74)"/><path d="M951.2,471.79A92.65,92.65,0,0,1,945.79,504a71.88,71.88,0,0,1-15,24.88,64.45,64.45,0,0,1-21.77,15.3,67.44,67.44,0,0,1-26.83,5.3,68.77,68.77,0,0,1-26.69-5.15A59.15,59.15,0,0,1,834.05,529a76.83,76.83,0,0,1-15-25.53,94.11,94.11,0,0,1-5.2-32,92.31,92.31,0,0,1,4.78-30.61,77.37,77.37,0,0,1,13.76-24.43A61.33,61.33,0,0,1,854.21,400a67,67,0,0,1,28.3-6,69,69,0,0,1,28,5.59A59.29,59.29,0,0,1,932,415.28a76.75,76.75,0,0,1,14.33,24.8Q951.2,454,951.2,471.79Zm-10.67,1.48a92.81,92.81,0,0,0-4.78-30.17,63.79,63.79,0,0,0-13.63-23.4,54.12,54.12,0,0,0-17.34-12.44,53.07,53.07,0,0,0-22.13-4.49q-13.62,0-23.32,4.93A61.49,61.49,0,0,0,843,419.4q-8.56,8.84-13.56,22.74a85.56,85.56,0,0,0-5,29.07,88.7,88.7,0,0,0,4.84,29.94,63.38,63.38,0,0,0,15,23.77,55.47,55.47,0,0,0,16.58,11.33,50.45,50.45,0,0,0,21.21,4.42,56.39,56.39,0,0,0,21.77-4.12,52,52,0,0,0,17.28-11.48,62.61,62.61,0,0,0,14.47-22.88A82.84,82.84,0,0,0,940.53,473.27Z" transform="translate(-137 -48.74)"/><path d="M1081.56,338.9h-6.32a53.54,53.54,0,0,0-19.1,3.45,38.66,38.66,0,0,0-15.17,10,40,40,0,0,0-8.57,15.2q-2.82,8.88-2.81,24v5.58h49V406h-49q0,47.69.14,92.57t.14,47.24h-10.82q0-2.36.14-45.47t.14-94.34H991.66v-8.83h27.67v-7.49a92.29,92.29,0,0,1,2.6-22.61,49.36,49.36,0,0,1,9.9-19.24q6.2-7.63,17.63-12.71a61.78,61.78,0,0,1,25.22-5.06h5.62Z" transform="translate(-137 -48.74)"/><path d="M1191.55,536.84l-.84,9.13c-1,0-2.53,0-4.49.15s-3.8.14-5.48.14q-25.15,0-37.86-12.87t-12.71-39.23q0-18.24.14-42.6t.14-45.26h-23.74v-8.83h24.16V363h10v34.43h51.84v8.83h-51.84q0,4.43-.14,17.81t-.14,26.64q0,14.87.07,23.25t.07,16.48q0,24.28,9.34,35.4T1183.69,537c1.31,0,2.71,0,4.21-.07S1190.62,536.84,1191.55,536.84Z" transform="translate(-137 -48.74)"/></g><text x="-137" y="-48.74"/><text id="Slogan" class="cls-1" transform="matrix(0.73, 0, 0, 1, 576.02, 583.41)">Powered by good ideas</text><path class="cls-2" d="M334,398m-166.5-7.5" transform="translate(-137 -48.74)"/><polyline class="cls-3" points="187 362.26 188 486.26 10 486.26 10 362.26 98 311.26"/><line class="cls-4" x1="111" y1="292.26" x2="200" y2="343.26"/><path class="cls-5" d="M171,424" transform="translate(-137 -48.74)"/><text x="-137" y="-48.74"/></svg>